<svg xmlns="http://www.w3.org/2000/svg" viewBox="0 0 24 24" id="gitlab"><path d="M22.162 10.015h-5.929a.5.5 0 0 1-.474-.656L18.3 1.637A.943.943 0 0 1 19.198 1h.001a.94.94 0 0 1 .893.625l.004.013 2.541 7.721a.5.5 0 0 1-.475.656zm-5.241-1h4.55l-2.29-6.96-2.26 6.96zM12 23a.504.504 0 0 1-.295-.096L.567 14.775a1.373 1.373 0 0 1-.501-1.53l1.296-3.89a.501.501 0 0 1 .868-.149l10.163 12.986A.5.5 0 0 1 12 23zM2.017 10.555l-1 3.003a.372.372 0 0 0 .143.411l8.23 6.007-7.373-9.421z"></path><path d="M7.767 10.015H1.838a.499.499 0 0 1-.474-.656l2.541-7.721A.941.941 0 0 1 4.803 1h.001c.406 0 .756.246.892.625l2.545 7.734a.5.5 0 0 1-.474.656zm-5.238-1h4.546L4.802 2.106 2.529 9.015z"></path><path d="M12 23a.5.5 0 0 1-.476-.345L7.291 9.669a.498.498 0 0 1 .475-.655h8.467c.16 0 .311.077.404.207a.495.495 0 0 1 .071.448l-4.233 12.985A.498.498 0 0 1 12 23zM8.455 10.015 12 20.887l3.545-10.872h-7.09z"></path><path d="M12 23a.499.499 0 0 1-.393-.808L21.769 9.207a.5.5 0 0 1 .869.149l1.295 3.886.002.002a1.373 1.373 0 0 1-.499 1.529l-11.14 8.13A.504.504 0 0 1 12 23zm9.982-12.444-7.372 9.42 8.232-6.008a.376.376 0 0 0 .141-.412l-1.001-3z"></path></svg>