<svg xmlns="http://www.w3.org/2000/svg" width="16" height="16" viewBox="0 0 16 16"><path fill-rule="evenodd" d="M13.434 4.187a.874.874 0 01-.67 1.04l-2.718.587a1 1 0 00-.79.977v.88a8 8 0 00.507 2.8l1.624 4.348a.874.874 0 11-1.638.612l-1.554-4.16a.5.5 0 00-.937 0l-1.554 4.16a.874.874 0 01-1.638-.611l1.625-4.35a8 8 0 00.506-2.8v-.879a1 1 0 00-.789-.977L2.69 5.226a.874.874 0 01.37-1.709l3.822.826a4 4 0 001.69 0l3.822-.826a.874.874 0 011.04.67zM7.684 0a1.749 1.749 0 110 3.497 1.749 1.749 0 010-3.497z"/></svg>