<svg width="16" height="16" viewBox="0 0 16 16" xmlns="http://www.w3.org/2000/svg"><path fill-rule="evenodd" clip-rule="evenodd" d="M7.879 5l1.06-1.06 1.421-1.422a3.5 3.5 0 00-3.653 4.674l.326.897-.675.674-3.797 3.798a.621.621 0 10.878.878l3.798-3.797.674-.675.897.325a3.5 3.5 0 004.674-3.653L12.06 7.062 11 8.12 9.94 7.06l-1-1L7.878 5zm6.173-1.93A4.987 4.987 0 0115 6a5 5 0 01-6.703 4.703L4.5 14.5a2.121 2.121 0 01-3-3l3.797-3.797A5 5 0 0113 2l-1.076 1.076-.863.863L10 5l1 1 1.06-1.06.864-.864L14 3l.052.07z"/></svg>