<svg width="16" height="16" viewBox="0 0 16 16" xmlns="http://www.w3.org/2000/svg"><path fill-rule="evenodd" clip-rule="evenodd" d="M3 2.5h2a.5.5 0 01.5.5v2a.5.5 0 01-.5.5H3a.5.5 0 01-.5-.5V3a.5.5 0 01.5-.5zM1 3a2 2 0 012-2h2a2 2 0 012 2v2a2 2 0 01-2 2H3a2 2 0 01-2-2V3zm2 7.5h2a.5.5 0 01.5.5v2a.5.5 0 01-.5.5H3a.5.5 0 01-.5-.5v-2a.5.5 0 01.5-.5zM1 11a2 2 0 012-2h2a2 2 0 012 2v2a2 2 0 01-2 2H3a2 2 0 01-2-2v-2zm12-8.5h-2a.5.5 0 00-.5.5v2a.5.5 0 00.5.5h2a.5.5 0 00.5-.5V3a.5.5 0 00-.5-.5zM11 1a2 2 0 00-2 2v2a2 2 0 002 2h2a2 2 0 002-2V3a2 2 0 00-2-2h-2zm0 9.5h2a.5.5 0 01.5.5v2a.5.5 0 01-.5.5h-2a.5.5 0 01-.5-.5v-2a.5.5 0 01.5-.5zM9 11a2 2 0 012-2h2a2 2 0 012 2v2a2 2 0 01-2 2h-2a2 2 0 01-2-2v-2z"/></svg>