<svg width="16" height="16" viewBox="0 0 16 16" xmlns="http://www.w3.org/2000/svg"><path fill-rule="evenodd" clip-rule="evenodd" d="M10.28 1.22a.75.75 0 10-1.06 1.06l1.22 1.22-1.22 1.22a.75.75 0 001.06 1.06l1.22-1.22 1.22 1.22a.75.75 0 101.06-1.06L12.56 3.5l1.22-1.22a.75.75 0 00-1.06-1.06L11.5 2.44l-1.22-1.22zm-2.5 6a.75.75 0 010 1.06l-2.045 2.046A2.499 2.499 0 014.5 15a2.5 2.5 0 01-.75-4.886V5.886a2.501 2.501 0 111.5 0v2.803l1.47-1.47a.75.75 0 011.06 0zM5.5 12.5a1 1 0 11-2 0 1 1 0 012 0zm0-9a1 1 0 11-2 0 1 1 0 012 0z"/></svg>