<svg width="16" height="16" viewBox="0 0 16 16" xmlns="http://www.w3.org/2000/svg"><path fill-rule="evenodd" clip-rule="evenodd" d="M3.5 14.5v-13h9v13H11V11a1 1 0 00-1-1H6a1 1 0 00-1 1v3.5H3.5zm3 0h3v-3h-3v3zM2 1a1 1 0 011-1h10a1 1 0 011 1v14a1 1 0 01-1 1H3a1 1 0 01-1-1V1zm3 2.75A.75.75 0 015.75 3h1a.75.75 0 010 1.5h-1A.75.75 0 015 3.75zM9.25 3a.75.75 0 000 1.5h1a.75.75 0 000-1.5h-1zM5 7.25a.75.75 0 01.75-.75h1a.75.75 0 010 1.5h-1A.75.75 0 015 7.25zm4.25-.75a.75.75 0 000 1.5h1a.75.75 0 000-1.5h-1z"/></svg>