<svg width="16" height="16" viewBox="0 0 16 16" xmlns="http://www.w3.org/2000/svg"><path fill-rule="evenodd" clip-rule="evenodd" d="M6.701 1.08a.75.75 0 00-.934-.5A7.75 7.75 0 00.573 5.785a.75.75 0 101.438.429 6.25 6.25 0 014.188-4.199.75.75 0 00.502-.934zm2.598 0a.75.75 0 01.934-.501 7.75 7.75 0 015.194 5.206.75.75 0 11-1.438.429 6.25 6.25 0 00-4.188-4.199.75.75 0 01-.502-.934zm2.481 4.14a.75.75 0 010 1.06l-4.5 4.5a.75.75 0 01-1.06 0L4.47 9.03a.75.75 0 011.06-1.06l1.22 1.22 3.97-3.97a.75.75 0 011.06 0zm-1.547 10.2a.75.75 0 11-.432-1.436 6.251 6.251 0 004.188-4.199.75.75 0 111.438.429 7.75 7.75 0 01-5.194 5.206zm-4.466 0a.75.75 0 10.432-1.436 6.25 6.25 0 01-4.188-4.199.75.75 0 10-1.438.429 7.75 7.75 0 005.194 5.206z"/></svg>