<svg width="16" height="16" viewBox="0 0 16 16" xmlns="http://www.w3.org/2000/svg"><path fill-rule="evenodd" clip-rule="evenodd" d="M4.255 6.052a3.75 3.75 0 017.349-.843l.152.528.55.014a2.25 2.25 0 011.256 4.077.75.75 0 00.876 1.218 3.75 3.75 0 00-1.561-6.744 5.251 5.251 0 00-10.037.974 3.25 3.25 0 00-1.216 6.039.75.75 0 10.752-1.299A1.749 1.749 0 013.43 6.76l.784.08.041-.787zM8 9.838l-1.732-.99L8 7.858l1.732.99L8 9.838zm.75 1.299l1.75-1v1.98l-1.75 1v-1.98zm-1.5 0l-1.75-1v1.98l1.75 1v-1.98zm.254-4.723a1 1 0 01.992 0l3 1.714a1 1 0 01.504.868v3.41a1 1 0 01-.504.87l-3 1.713a1 1 0 01-.992 0l-3-1.714A1 1 0 014 12.407v-3.41a1 1 0 01.504-.87l3-1.713z"/></svg>