<svg width="16" height="16" viewBox="0 0 16 16" xmlns="http://www.w3.org/2000/svg"><path fill-rule="evenodd" clip-rule="evenodd" d="M4.5 3.5a1 1 0 11-2 0 1 1 0 012 0zm-.25 2.386a2.501 2.501 0 10-1.5 0V10.5a2.75 2.75 0 002.75 2.75h.629l-.47.47a.75.75 0 101.061 1.06l1.75-1.75.53-.53-.53-.53-1.75-1.75a.747.747 0 00-1.061 0 .75.75 0 000 1.06l.47.47H5.5c-.69 0-1.25-.56-1.25-1.25V5.886zM9.28 1.22a.75.75 0 111.06 1.06l-.47.47h.63a2.75 2.75 0 012.75 2.75v4.614a2.501 2.501 0 11-1.5 0V5.5c0-.69-.56-1.25-1.25-1.25h-.63l.47.47a.75.75 0 11-1.06 1.06L7.53 4.03 7 3.5l.53-.53 1.75-1.75zM12.5 13.5a1 1 0 100-2 1 1 0 000 2z"/></svg>