<svg width="16" height="16" viewBox="0 0 16 16" xmlns="http://www.w3.org/2000/svg"><path fill-rule="evenodd" clip-rule="evenodd" d="M6.66.112a8.049 8.049 0 012.68 0 .75.75 0 11-.25 1.479 6.549 6.549 0 00-2.18 0A.75.75 0 116.66.11zm4.924 1.54a.75.75 0 011.046-.177 8.04 8.04 0 011.895 1.895.75.75 0 11-1.223.869 6.54 6.54 0 00-1.54-1.541.75.75 0 01-.178-1.046zm-7.168 0a.75.75 0 01-.177 1.046 6.541 6.541 0 00-1.541 1.54.75.75 0 01-1.223-.868A8.042 8.042 0 013.37 1.475a.75.75 0 011.046.177zM.976 6.045a.75.75 0 01.615.865 6.549 6.549 0 000 2.18.75.75 0 11-1.48.25 8.048 8.048 0 010-2.68.75.75 0 01.865-.615zm14.048 0a.75.75 0 01.864.615 8.047 8.047 0 010 2.68.75.75 0 11-1.479-.25 6.552 6.552 0 000-2.18.75.75 0 01.615-.865zm-13.372 5.54a.75.75 0 011.046.176 6.54 6.54 0 001.54 1.541.75.75 0 11-.868 1.223 8.04 8.04 0 01-1.895-1.895.75.75 0 01.177-1.046zm12.696 0a.75.75 0 01.177 1.045 8.04 8.04 0 01-1.895 1.895.75.75 0 11-.869-1.223 6.538 6.538 0 001.541-1.54.75.75 0 011.046-.178zm-8.303 3.439a.75.75 0 01.865-.615 6.552 6.552 0 002.18 0 .75.75 0 11.25 1.48 8.047 8.047 0 01-2.68 0 .75.75 0 01-.615-.865z"/></svg>