<svg width="16" height="16" viewBox="0 0 16 16" xmlns="http://www.w3.org/2000/svg"><path fill-rule="evenodd" d="M0 4.13v1.428a.5.5 0 00.725.446l.886-.446.377-.19L2 5.362l1.404-.708.07-.036.662-.333.603-.304a.5.5 0 000-.893l-.603-.305-.662-.333-.07-.036L2 1.706l-.012-.005-.377-.19-.886-.447A.5.5 0 000 1.51v2.62zM7.25 2a.75.75 0 000 1.5h7a.25.25 0 01.25.25v8.5a.25.25 0 01-.25.25h-9.5a.25.25 0 01-.25-.25V6.754a.75.75 0 00-1.5 0v5.496c0 .966.784 1.75 1.75 1.75h9.5A1.75 1.75 0 0016 12.25v-8.5A1.75 1.75 0 0014.25 2h-7zm-.5 4a.75.75 0 000 1.5h5.5a.75.75 0 000-1.5h-5.5zM6 9.25a.75.75 0 01.75-.75h3.5a.75.75 0 010 1.5h-3.5A.75.75 0 016 9.25z" clip-rule="evenodd"/></svg>