<svg width="16" height="16" viewBox="0 0 16 16" xmlns="http://www.w3.org/2000/svg"><path d="M13.553 3.016A13.233 13.233 0 0010.253 2a9.068 9.068 0 00-.423.86 12.293 12.293 0 00-3.664 0A9.112 9.112 0 005.744 2c-1.141.195-2.252.537-3.304 1.018C.351 6.108-.215 9.123.068 12.094a13.306 13.306 0 004.048 2.033 9.78 9.78 0 00.867-1.399 8.605 8.605 0 01-1.365-.652c.115-.083.227-.168.335-.251a9.51 9.51 0 008.094 0c.11.09.222.175.335.251a8.648 8.648 0 01-1.368.654 9.7 9.7 0 00.867 1.396 13.248 13.248 0 004.051-2.03c.332-3.446-.568-6.433-2.379-9.08zm-8.21 7.25c-.79 0-1.442-.715-1.442-1.596 0-.881.63-1.603 1.439-1.603s1.456.722 1.442 1.603c-.014.88-.636 1.597-1.44 1.597zm5.315 0c-.79 0-1.44-.715-1.44-1.596 0-.881.63-1.603 1.44-1.603.81 0 1.452.722 1.438 1.603-.014.88-.634 1.597-1.438 1.597z"/></svg>