<svg width="16" height="16" viewBox="0 0 16 16" xmlns="http://www.w3.org/2000/svg"><path fill-rule="evenodd" clip-rule="evenodd" d="M3 0a1 1 0 00-1 1v6a.75.75 0 001.5 0V1.5H8v2.75C8 5.216 8.784 6 9.75 6h2.75v8.5H4.75a.75.75 0 000 1.5H13a1 1 0 001-1V4.476a1 1 0 00-.28-.695L10.362.305A1 1 0 009.643 0H3zm9.328 4.5L9.5 1.57v2.68c0 .138.112.25.25.25h2.578zM1 13.5a3.75 3.75 0 013.75-3.75H7V8.5c0-.445.503-.667.798-.353L10 10.5l-2.202 2.353c-.295.314-.798.091-.798-.353v-1.25H4.75A2.25 2.25 0 002.5 13.5v.75a.75.75 0 01-1.5 0v-.75z"/></svg>