<svg width="16" height="16" viewBox="0 0 16 16" xmlns="http://www.w3.org/2000/svg"><path fill-rule="evenodd" clip-rule="evenodd" d="M13.5 6v5.5h-8v-10H9v2.75C9 5.216 9.784 6 10.75 6h2.75zm-3-4.379L13.379 4.5H10.75a.25.25 0 01-.25-.25V1.621zM5 0a1 1 0 00-1 1v2H2.25C1.56 3 1 3.56 1 4.25v10.5c0 .69.56 1.25 1.25 1.25h8.25c.69 0 1.25-.56 1.25-1.25v-1.67a.756.756 0 00-.004-.08H14a1 1 0 001-1V4.414a1 1 0 00-.293-.707L11.293.293A1 1 0 0010.586 0H5zM4 12V4.5H2.5v10h7.75v-1.42c0-.027.001-.054.004-.08H5a1 1 0 01-1-1z"/></svg>