<svg width="16" height="16" viewBox="0 0 16 16" xmlns="http://www.w3.org/2000/svg"><path fill-rule="evenodd" clip-rule="evenodd" d="M.879 10.879l.182.182.878.878a1.5 1.5 0 012.121 2.122l.88.878.181.182L6 16l1.06-1.06 7.88-7.88L16 6l-.879-.879-.182-.182-.878-.878a1.5 1.5 0 01-2.122-2.121l-.878-.88-.182-.181L10 0 8.94 1.06 1.06 8.94 0 10l.879.879zM3 10c-.268 0-.529.036-.777.102L2.121 10l4.41-4.409 3.878 3.879L6 13.879l-.102-.102A3 3 0 003 10zm8.47-1.591L13.879 6l-.102-.102a3 3 0 01-3.675-3.675L10 2.121l-2.409 2.41 3.879 3.878z"/></svg>