<svg width="16" height="16" viewBox="0 0 16 16" xmlns="http://www.w3.org/2000/svg"><path fill-rule="evenodd" clip-rule="evenodd" d="M14.5 8a6.5 6.5 0 11-13 0 6.5 6.5 0 0113 0zM16 8A8 8 0 110 8a8 8 0 0116 0zM8.688 3.202a.75.75 0 00-1.376 0L6.266 5.613l-2.617.25a.75.75 0 00-.425 1.309l1.97 1.74-.571 2.565a.75.75 0 001.113.81L8 10.95l2.264 1.336a.75.75 0 001.113-.809l-.571-2.565 1.97-1.74a.75.75 0 00-.425-1.31l-2.617-.249-1.046-2.411zM7.466 6.616L8 5.386l.534 1.23a.75.75 0 00.617.449l1.336.127-1.006.888a.75.75 0 00-.236.726l.292 1.31-1.156-.683a.75.75 0 00-.762 0l-1.156.682.292-1.31a.75.75 0 00-.236-.725l-1.006-.888 1.336-.127a.75.75 0 00.617-.449z"/></svg>