<svg width="16" height="16" viewBox="0 0 16 16" xmlns="http://www.w3.org/2000/svg"><path fill-rule="evenodd" clip-rule="evenodd" d="M9.75.75a.75.75 0 00-1.5 0v1.5a.75.75 0 001.5 0V.75zm4.03 2.53a.75.75 0 10-1.06-1.06l-1.5 1.5a.75.75 0 101.06 1.06l1.5-1.5zM8.293 4.646a1 1 0 011.414 0l1.647 1.647a1 1 0 010 1.414l-7.99 7.99a1 1 0 01-1.415 0L.303 14.051a1 1 0 010-1.414l7.99-7.99zM9 6.061L7.06 8l.94.94L9.94 7 9 6.06zm-7.283 7.283L6 9.06l.94.939-4.284 4.283-.94-.94zM13 7a.75.75 0 01.75-.75h1.5a.75.75 0 010 1.5h-1.5A.75.75 0 0113 7zm.78 4.78a.75.75 0 000-1.06l-1.5-1.5a.75.75 0 00-1.06 1.06l1.5 1.5a.75.75 0 001.06 0zm-9.56-8.5a.75.75 0 011.06-1.06l1.5 1.5a.75.75 0 01-1.06 1.06l-1.5-1.5z"/></svg>