<svg width="16" height="16" viewBox="0 0 16 16" xmlns="http://www.w3.org/2000/svg"><path fill-rule="evenodd" clip-rule="evenodd" d="M11.25 2.5a2.25 2.25 0 00-2.154 2.904l.13.43-.317.318-6.254 6.253-.53-.53.53.53a.664.664 0 00.94.94L9.848 7.09l.318-.318.43.13a2.25 2.25 0 002.685-3.124l-1.5 1.501a.75.75 0 11-1.061-1.06l1.5-1.5a2.241 2.241 0 00-.97-.22zM7.5 4.75a3.75 3.75 0 113.114 3.696L10.061 9l.939.94.47-.47.53-.53.53.53 1.875 1.875a2.164 2.164 0 11-3.06 3.06L9.47 12.53 8.94 12l.53-.53.47-.47-.94-.94-4.345 4.345-.53-.53.53.53a2.164 2.164 0 11-3.06-3.06L5.939 7 3.5 4.56l-.617.617-.507-.761-1-1.5-.341-.512.435-.434.5-.5.434-.435.512.341 1.5 1 .761.507-.616.617L7 5.94l.554-.554A3.769 3.769 0 017.5 4.75zm4.5 6.31l1.345 1.345a.664.664 0 01-.94.94L11.061 12l.939-.94z"/></svg>