<svg width="16" height="16" viewBox="0 0 16 16" xmlns="http://www.w3.org/2000/svg"><path fill-rule="evenodd" clip-rule="evenodd" d="M13.037.057A.75.75 0 0113.5.75V2.5h1.75a.75.75 0 01.53 1.28l-3 3a.75.75 0 01-.53.22h-.377a4 4 0 11-4.797-2.892.75.75 0 01.347 1.46A2.5 2.5 0 1010.29 7h-.23L8.53 8.53a.75.75 0 11-1.06-1.06L9 5.94V3.75a.75.75 0 01.22-.53l3-3a.75.75 0 01.817-.163zM10.5 4.061V5.5h1.44l1.5-1.5H12V2.56l-1.5 1.5zM4.82 2.33a6.5 6.5 0 013.853-.796.75.75 0 10.155-1.492 8 8 0 107.129 7.128.75.75 0 10-1.492.155A6.5 6.5 0 114.82 2.331z"/></svg>