<svg width="16" height="16" viewBox="0 0 16 16" xmlns="http://www.w3.org/2000/svg"><path fill-rule="evenodd" clip-rule="evenodd" d="M3.5 2.5v11h9v-11h-9zM3 1a1 1 0 00-1 1v12a1 1 0 001 1h10a1 1 0 001-1V2a1 1 0 00-1-1H3zm5 10a.75.75 0 01.75-.75h1.75a.75.75 0 010 1.5H8.75A.75.75 0 018 11zm-2 1a1 1 0 100-2 1 1 0 000 2zm2-4a.75.75 0 01.75-.75h1.75a.75.75 0 010 1.5H8.75A.75.75 0 018 8zM6 9a1 1 0 100-2 1 1 0 000 2zm2-4a.75.75 0 01.75-.75h1.75a.75.75 0 010 1.5H8.75A.75.75 0 018 5zM6 6a1 1 0 100-2 1 1 0 000 2z"/></svg>