<svg width="16" height="16" viewBox="0 0 16 16" xmlns="http://www.w3.org/2000/svg"><path fill-rule="evenodd" clip-rule="evenodd" d="M13.75 3.5a1.25 1.25 0 100-2.5 1.25 1.25 0 000 2.5zM9.5 8a1.5 1.5 0 11-3 0 1.5 1.5 0 013 0zM8 11a3.001 3.001 0 002.905-2.25h1.845c.071.095.155.179.25.25v3.75a1.25 1.25 0 101.5 0V9a1.25 1.25 0 10-1.75-1.75h-1.845A3.005 3.005 0 008.75 5.095V3.25A1.25 1.25 0 107 1.5H3.25a1.25 1.25 0 100 1.5H7c.071.095.155.179.25.25v1.845A3.001 3.001 0 008 11zm-5.75 4a1.25 1.25 0 100-2.5 1.25 1.25 0 000 2.5zm7-1.25a1.25 1.25 0 11-2.5 0 1.25 1.25 0 012.5 0zM3.5 8A1.25 1.25 0 111 8a1.25 1.25 0 012.5 0z"/></svg>