<svg width="16" height="16" viewBox="0 0 16 16" xmlns="http://www.w3.org/2000/svg"><path d="M15.498 3.706C15.264 1.986 13.749.632 11.954.37 11.65.325 10.503.164 7.844.164h-.02c-2.66 0-3.23.161-3.533.206C2.546.625.951 1.842.565 3.582.379 4.438.359 5.388.393 6.259.443 7.51.453 8.756.567 10c.08.827.218 1.647.414 2.454.368 1.49 1.856 2.731 3.314 3.237a8.98 8.98 0 004.848.253c.177-.04.352-.088.525-.141.39-.123.849-.26 1.186-.502a.039.039 0 00.01-.013.036.036 0 00.005-.016v-1.206a.035.035 0 00-.028-.034.038.038 0 00-.016 0c-1.03.243-2.087.365-3.146.363-1.824 0-2.314-.856-2.455-1.212a3.722 3.722 0 01-.213-.955.035.035 0 01.028-.036.035.035 0 01.016 0 13.32 13.32 0 003.095.364c.25 0 .5 0 .751-.007 1.049-.03 2.154-.082 3.186-.281.025-.006.051-.01.073-.016 1.627-.31 3.176-1.28 3.333-3.736.006-.097.02-1.013.02-1.113.002-.342.112-2.42-.015-3.697zm-2.505 6.13h-1.71V5.69c0-.873-.368-1.318-1.116-1.318-.822 0-1.234.526-1.234 1.566v2.27h-1.7v-2.27c0-1.04-.413-1.566-1.235-1.566-.744 0-1.115.445-1.116 1.318v4.145h-1.71V5.565c0-.873.226-1.566.677-2.08.464-.513 1.074-.776 1.83-.776.876 0 1.538.333 1.979.999l.426.706.426-.706c.441-.666 1.103-.999 1.977-.999.756 0 1.366.263 1.832.776.45.513.676 1.207.676 2.08z"/></svg>