<svg width="16" height="16" viewBox="0 0 16 16" xmlns="http://www.w3.org/2000/svg"><path fill-rule="evenodd" clip-rule="evenodd" d="M8.716.315a1 1 0 00-1.432 0L6.646.97a1 1 0 01-.988.265l-.88-.248a1 1 0 00-1.24.716l-.226.886a1 1 0 01-.723.723l-.886.225a1 1 0 00-.716 1.24l.248.881a1 1 0 01-.265.988l-.655.638a1 1 0 000 1.432l.655.639a1 1 0 01.265.987l-.248.88a1 1 0 00.716 1.24l.886.226a1 1 0 01.723.723l.225.886a1 1 0 001.24.717l.881-.248a1 1 0 01.988.264l.638.655a1 1 0 001.432 0l.639-.655a1 1 0 01.987-.264l.88.248a1 1 0 001.24-.717l.226-.886a1 1 0 01.723-.723l.886-.225a1 1 0 00.717-1.24l-.248-.88a1 1 0 01.264-.988l.655-.639a1 1 0 000-1.432l-.655-.638a1 1 0 01-.264-.988l.248-.88a1 1 0 00-.717-1.24l-.886-.226a1 1 0 01-.723-.723l-.225-.886a1 1 0 00-1.24-.716l-.88.248A1 1 0 019.354.97L8.716.315zm3.057 5.975a.75.75 0 00-1.042-1.08L6.597 9.202 5.28 7.887A.75.75 0 004.22 8.95l1.839 1.834a.75.75 0 001.05.01l4.664-4.503z"/></svg>