<svg xmlns="http://www.w3.org/2000/svg" width="12" height="12" viewBox="0 0 12 12"><path fill-rule="evenodd" d="M6 12A6 6 0 116 0a6 6 0 010 12zM3.324 4.643c0-.313.107-.631.32-.953.214-.322.526-.589.935-.8.41-.212.887-.317 1.433-.317.508 0 .956.088 1.344.265.389.176.689.417.9.72.212.304.318.635.318.991 0 .281-.06.527-.18.738-.121.212-.265.394-.431.548-.167.153-.465.412-.895.775a3.549 3.549 0 00-.287.27 1.1 1.1 0 00-.16.213c-.289.667-1.543.592-1.302-.342a1.82 1.82 0 01.363-.535c.15-.153.353-.336.609-.547.224-.185.385-.325.485-.419.1-.094.184-.199.252-.314a.727.727 0 00.103-.377.854.854 0 00-.313-.669c-.208-.181-.477-.272-.806-.272-.385 0-.668.092-.85.275-.182.183-.336.453-.462.81-.12.373-.345.56-.677.56a.686.686 0 01-.496-.196c-.135-.13-.203-.272-.203-.424zM6 9.75a.75.75 0 110-1.5.75.75 0 010 1.5z"/></svg>