<svg width="14" height="14" viewBox="0 0 14 14" xmlns="http://www.w3.org/2000/svg"><path d="M7 14A7 7 0 107 0a7 7 0 000 14z"/><path d="M7 13A6 6 0 107 1a6 6 0 000 12z" fill="#fff"/><path d="M6.995 10.64a3.645 3.645 0 110-7.29 3.645 3.645 0 010 7.29zm0-1.042a2.603 2.603 0 100-5.206 2.603 2.603 0 000 5.206z"/><path d="M7.033 4.92h-.065a.488.488 0 00-.488.488v1.627c0 .27.218.488.488.488h.065c.27 0 .488-.218.488-.488V5.408a.488.488 0 00-.488-.488z"/><path d="M8.075 6.48H6.968a.488.488 0 00-.488.488v.065c0 .27.218.488.488.488h1.107c.27 0 .488-.218.488-.488v-.065a.488.488 0 00-.488-.488z"/></svg>