<svg width="14" height="14" viewBox="0 0 14 14" xmlns="http://www.w3.org/2000/svg"><path d="M7 14A7 7 0 117 0a7 7 0 010 14z"/><path d="M7 13A6 6 0 107 1a6 6 0 000 12z" fill="var(--svg-status-bg, #fff)"/><path d="M6.415 7.04L4.579 5.203a.295.295 0 01.004-.416l.349-.349a.29.29 0 01.416-.004l2.214 2.214a.289.289 0 01.019.021l.132.133c.11.11.108.291 0 .398L5.341 9.573a.282.282 0 01-.398 0l-.331-.331a.285.285 0 010-.399L6.415 7.04zm2.54 0L7.119 5.203a.295.295 0 01.004-.416l.349-.349a.29.29 0 01.416-.004l2.214 2.214a.289.289 0 01.019.021l.132.133c.11.11.108.291 0 .398L7.881 9.573a.282.282 0 01-.398 0l-.331-.331a.285.285 0 010-.399L8.955 7.04z"/></svg>