<svg width="16" height="16" viewBox="0 0 16 16" xmlns="http://www.w3.org/2000/svg"><path fill-rule="evenodd" clip-rule="evenodd" d="M2.75.75a.75.75 0 00-1.5 0v.5h-.5a.75.75 0 000 1.5h.5v.5a.75.75 0 001.5 0v-.5h.5a.75.75 0 000-1.5h-.5v-.5zm11.645 6.118l-.014-.038-.55-1.44-.172.53-.337 1.035H6.678L6.342 5.92l-.172-.528-.551 1.445-.004.01-.004.01-.012.03a1.557 1.557 0 00.512 1.78l.001.001.003.003.01.008.01.008.004.002 2.474 1.862.005.004 1.232.935.148.112.146-.112 1.233-.935.006-.004 2.49-1.873.006-.004.009-.006a1.558 1.558 0 00.51-1.79l-.003-.009zm.391 3l-2.502 1.88-1.233.936-.748.569a.505.505 0 01-.61 0l-.75-.569-1.232-.935-2.485-1.87-.013-.011-.007-.005A3.057 3.057 0 014.2 6.343l.017-.042L5.431 3.12l.068-.178.043-.114.173-.453.017-.045.118-.308a.425.425 0 01.356-.27.43.43 0 01.46.314l.099.305.004.013.193.594.06.181.746 2.296h4.464l.747-2.296.06-.18.193-.595.004-.013.099-.305a.433.433 0 01.648-.248.43.43 0 01.168.204l.116.305.019.048.171.45.045.117.068.177L15.784 6.3l.016.044a3.057 3.057 0 01-1.007 3.518l-.007.006zM3.5 11a.75.75 0 01.75.75v1h1a.75.75 0 010 1.5h-1v1a.75.75 0 01-1.5 0v-1h-1a.75.75 0 010-1.5h1v-1A.75.75 0 013.5 11z"/></svg>