<svg width="16" height="16" viewBox="0 0 16 16" xmlns="http://www.w3.org/2000/svg"><path fill-rule="evenodd" clip-rule="evenodd" d="M4 6.5a1.5 1.5 0 100-3 1.5 1.5 0 000 3zM7 5a2.99 2.99 0 01-.87 2.113A3.997 3.997 0 018 10.5V12a2 2 0 01-2 2H2a2 2 0 01-2-2v-1.5c0-1.427.747-2.679 1.87-3.387A3 3 0 117 5zm-5.5 5.5a2.5 2.5 0 015 0V12a.5.5 0 01-.5.5H2a.5.5 0 01-.5-.5v-1.5zm9.72-6.28a.75.75 0 011.06 0l1.22 1.22 1.22-1.22a.75.75 0 111.06 1.06L14.56 6.5l1.22 1.22a.75.75 0 01-1.06 1.06L13.5 7.56l-1.22 1.22a.75.75 0 11-1.06-1.06l1.22-1.22-1.22-1.22a.75.75 0 010-1.06z"/></svg>