<svg width="16" height="16" viewBox="0 0 16 16" xmlns="http://www.w3.org/2000/svg"><path fill-rule="evenodd" clip-rule="evenodd" d="M6 1.75a.75.75 0 00-1.5 0V4.5H1.75a.75.75 0 000 1.5H6V1.75zm5.151 1.16a1.371 1.371 0 011.94 1.939l-2.871 2.87a.75.75 0 101.06 1.061l2.871-2.87a2.871 2.871 0 00-4.06-4.061L7.22 4.719A.75.75 0 008.28 5.78l2.871-2.87zM10 14.25a.75.75 0 001.5 0V11.5h2.75a.75.75 0 000-1.5H10v4.25zM5.781 7.22a.75.75 0 010 1.06l-2.87 2.871a1.371 1.371 0 001.939 1.94l2.87-2.871a.75.75 0 111.061 1.06l-2.87 2.871a2.871 2.871 0 01-4.061-4.06L4.72 7.22a.75.75 0 011.061 0z"/></svg>