<svg width="16" height="16" viewBox="0 0 16 16" xmlns="http://www.w3.org/2000/svg"><path fill-rule="evenodd" clip-rule="evenodd" d="M6.5 4a1.5 1.5 0 11-3 0 1.5 1.5 0 013 0zm.63 2.113a3 3 0 10-4.259 0A3.997 3.997 0 001 9.5V13a2 2 0 002 2h4c.597 0 1.134-.262 1.5-.677.366.415.903.677 1.5.677h3a2 2 0 002-2v-2c0-1.218-.622-2.29-1.565-2.917a2.5 2.5 0 10-3.87 0c-.241.16-.462.35-.656.564a4.005 4.005 0 00-1.78-2.534zM5 7a2.5 2.5 0 00-2.5 2.5V13a.5.5 0 00.5.5h4a.5.5 0 00.5-.5V9.5A2.5 2.5 0 005 7zm7.5-.5a1 1 0 11-2 0 1 1 0 012 0zm-1 2.5a2 2 0 00-2 2v2a.5.5 0 00.5.5h3a.5.5 0 00.5-.5v-2a2 2 0 00-2-2z"/></svg>